<svg  fill="none" xmlns="http://www.w3.org/2000/svg">

    <g id="github">
        <path fill-rule="evenodd" clip-rule="evenodd" d="M44 0C19.69 0 0 19.69 0 44C0 63.47 12.595 79.915 30.085 85.745C32.285 86.13 33.11 84.81 33.11 83.655C33.11 82.61 33.055 79.145 33.055 75.46C22 77.495 19.14 72.765 18.26 70.29C17.765 69.025 15.62 65.12 13.75 64.075C12.21 63.25 10.01 61.215 13.695 61.16C17.16 61.105 19.635 64.35 20.46 65.67C24.42 72.325 30.745 70.455 33.275 69.3C33.66 66.44 34.815 64.515 36.08 63.415C26.29 62.315 16.06 58.52 16.06 41.69C16.06 36.905 17.765 32.945 20.57 29.865C20.13 28.765 18.59 24.255 21.01 18.205C21.01 18.205 24.695 17.05 33.11 22.715C36.63 21.725 40.37 21.23 44.11 21.23C47.85 21.23 51.59 21.725 55.11 22.715C63.525 16.995 67.21 18.205 67.21 18.205C69.63 24.255 68.09 28.765 67.65 29.865C70.455 32.945 72.16 36.85 72.16 41.69C72.16 58.575 61.875 62.315 52.085 63.415C53.68 64.79 55.055 67.43 55.055 71.555C55.055 77.44 55 82.17 55 83.655C55 84.81 55.825 86.185 58.025 85.745C66.7597 82.796 74.3497 77.1822 79.7268 69.6937C85.1039 62.2052 87.9974 53.219 88 44C88 19.69 68.31 0 44 0Z" fill="#FFFEFE"/>
    </g>
    <g id="githubMenu">
        <path fill-rule="evenodd" clip-rule="evenodd" d="M44 0C19.69 0 0 19.69 0 44C0 63.47 12.595 79.915 30.085 85.745C32.285 86.13 33.11 84.81 33.11 83.655C33.11 82.61 33.055 79.145 33.055 75.46C22 77.495 19.14 72.765 18.26 70.29C17.765 69.025 15.62 65.12 13.75 64.075C12.21 63.25 10.01 61.215 13.695 61.16C17.16 61.105 19.635 64.35 20.46 65.67C24.42 72.325 30.745 70.455 33.275 69.3C33.66 66.44 34.815 64.515 36.08 63.415C26.29 62.315 16.06 58.52 16.06 41.69C16.06 36.905 17.765 32.945 20.57 29.865C20.13 28.765 18.59 24.255 21.01 18.205C21.01 18.205 24.695 17.05 33.11 22.715C36.63 21.725 40.37 21.23 44.11 21.23C47.85 21.23 51.59 21.725 55.11 22.715C63.525 16.995 67.21 18.205 67.21 18.205C69.63 24.255 68.09 28.765 67.65 29.865C70.455 32.945 72.16 36.85 72.16 41.69C72.16 58.575 61.875 62.315 52.085 63.415C53.68 64.79 55.055 67.43 55.055 71.555C55.055 77.44 55 82.17 55 83.655C55 84.81 55.825 86.185 58.025 85.745C66.7597 82.796 74.3497 77.1822 79.7268 69.6937C85.1039 62.2052 87.9974 53.219 88 44C88 19.69 68.31 0 44 0Z" fill="#a7a7a7"/>
    </g>

    <g id="styled-components">
        <svg width="120px" height="120px" viewBox="0 0 32 32" xmlns="http://www.w3.org/2000/svg" fill="#000000"><g id="SVGRepo_bgCarrier" stroke-width="0"></g><g id="SVGRepo_tracerCarrier" stroke-linecap="round" stroke-linejoin="round"></g><g id="SVGRepo_iconCarrier"><title>file_type_styled</title><path d="M18.05,29.6c.042-.095.148-.161.225-.241,1.175-1.232,2.36-2.453,3.519-3.7A3.2,3.2,0,0,0,22.808,23a5.925,5.925,0,0,0-.143-.624c-.316.3-.61.573-.906.848-.46.428-.918.858-1.382,1.281a1.931,1.931,0,0,1-2.148.419,1.973,1.973,0,0,1-1.29-1.75,1.04,1.04,0,0,0-.043-.146c-.353.3-.691.576-1.026.86l-6.963,5.9c-.048.041-.1.092-.145.132h9.283l-.014-.009C17.981,29.876,18.007,29.692,18.05,29.6Z" style="fill:#ffcebf"></path><path d="M8.337,29.6a1.239,1.239,0,0,1,.295-.276l9.636-8.175q.986-.837,1.963-1.683a.523.523,0,0,0,.182-.224,5.364,5.364,0,0,0,.065-2.069c-.1.07-.154.1-.2.149-.789.706-1.574,1.418-2.367,2.12a1.762,1.762,0,0,1-2.048.329,1.889,1.889,0,0,1-1.08-1.807c0-.085,0-.169,0-.324-.145.106-.251.177-.35.257Q8.648,22.529,2.865,27.154c-.174.139-.382.449-.61.148s.119-.425.294-.565q6.165-4.947,12.336-9.885c.67-.537.714-.762.278-1.615l-.26.244c-.713.663-1.434,1.317-2.136,1.991a2.121,2.121,0,0,1-3.585-1.337c-.133.1-.248.173-.357.258l-6.1,4.728a1.485,1.485,0,0,1-.356.258.446.446,0,0,1-.3-.015v8.561H8.325A.365.365,0,0,1,8.337,29.6Z" style="fill:#ffcebf"></path><path d="M25.237,2.423c-.17.557-.335,1.115-.484,1.678a1.688,1.688,0,0,0,.9,2.09,7.122,7.122,0,0,0,3.818.8V2.518a.73.73,0,0,1,.016-.294.666.666,0,0,1,.105-.149H25.233C25.3,2.153,25.277,2.29,25.237,2.423Z" style="fill:#ff6196"></path><path d="M16.482,12.032a2.422,2.422,0,0,1-.5,1.376A22.671,22.671,0,0,1,12.256,17.2a1.442,1.442,0,0,1-1.684.2,1.393,1.393,0,0,1-.843-1.368,1.624,1.624,0,0,1,.417-.947,35.848,35.848,0,0,1,5.019-3.993.71.71,0,0,1,.829-.034A1.041,1.041,0,0,1,16.482,12.032Z" style="fill:#ff87af"></path><path d="M15.284,18.093a1.437,1.437,0,0,1,.448-1.2,38.336,38.336,0,0,1,4.87-3.813c.052-.033.1-.066.157-.1a.837.837,0,0,1,1.025.035.861.861,0,0,1,.242.979,4.39,4.39,0,0,1-1.168,1.908c-1.105,1.1-2.252,2.164-3.4,3.22a1.124,1.124,0,0,1-1.364.192A1.512,1.512,0,0,1,15.284,18.093Z" style="fill:#ff87af"></path><path d="M22.5,18.754c-.28.3-.568.586-.837.893a1.89,1.89,0,0,0-.2.38c.148.044.321.16.441.119.611-.205,1.207-.451,1.878-.71-.146.336-.256.646-.411.93A12.189,12.189,0,0,1,21,23.238q-.532.513-1.105.981a1.484,1.484,0,0,1-2.415-.92,1.1,1.1,0,0,1,.238-.813,22.187,22.187,0,0,1,4.623-3.823.193.193,0,0,1,.065-.013Z" style="fill:#ff87af"></path><path d="M24.794,14.771l1.711-7.6,1.2.281-.619,1.881c-.578,1.75-1.163,3.5-1.727,5.252C25.249,14.909,25.105,14.969,24.794,14.771Z" style="fill:#ff6196"></path><path d="M22.862,19.241c.181-.691.361-1.33.513-1.976a4.468,4.468,0,0,1,.826-1.721c.243-.319.516-.192.795-.123.258.063.323.252.334.5a2.845,2.845,0,0,1-.588,1.907A4.8,4.8,0,0,1,22.862,19.241Z" style="fill:#ff6196"></path><path d="M29.993,2.894a3.623,3.623,0,0,0-.017-.668.291.291,0,0,0-.116-.151A.381.381,0,0,0,29.708,2c-.032-.006-.077.027-.12.074a.666.666,0,0,0-.105.149.73.73,0,0,0-.016.294V6.989a7.122,7.122,0,0,1-3.818-.8,1.688,1.688,0,0,1-.9-2.09c.149-.563.314-1.121.484-1.678.04-.133.063-.27,0-.348a.2.2,0,0,0-.135-.064.3.3,0,0,0-.182.064.434.434,0,0,0-.171.19c-.2.6-.376,1.206-.529,1.818a2.148,2.148,0,0,0-.046.737,2.339,2.339,0,0,0,1.542,2c.189.079.3.157.247.406-.073.316-.144.632-.216.949q-.735,3.222-1.462,6.447a.483.483,0,0,1-.121.257,3.228,3.228,0,0,0-.791.92,4.8,4.8,0,0,0-.53,1.5.981.981,0,0,1-.558.785c-.417.211-.8.484-1.263.768A12.639,12.639,0,0,0,21,17.179a1.062,1.062,0,0,1,.284-.96,4.75,4.75,0,0,0,1.258-2.194,1.294,1.294,0,0,0-1.208-1.7,1.7,1.7,0,0,0-.929.264c-.957.646-1.888,1.332-2.812,2.026-.547.412-1.062.868-1.592,1.3a.418.418,0,0,1-.059-.081.842.842,0,0,0-.059-.214c-.443-.684-.136-1.181.345-1.692A2.793,2.793,0,0,0,17,11.977a1.568,1.568,0,0,0-.327-1.026,1.459,1.459,0,0,0-.438-.363,1.337,1.337,0,0,0-1.517.162l-.279.2c-.637.456-1.282.9-1.895,1.388-.895.712-1.769,1.454-2.626,2.214-.4.353-.692.835-1.107,1.163-2.164,1.709-4.351,3.387-6.53,5.076a1.022,1.022,0,0,0-.205.161.164.164,0,0,0-.016.029c-.046.107-.085.284-.031.349a.141.141,0,0,0,.047.033.446.446,0,0,0,.3.015,1.485,1.485,0,0,0,.356-.258l6.1-4.728c.109-.085.224-.162.357-.258a2.121,2.121,0,0,0,3.585,1.337c.7-.674,1.423-1.328,2.136-1.991l.26-.244c.436.853.392,1.078-.278,1.615Q8.716,21.793,2.549,26.737c-.175.14-.521.267-.294.565s.436-.009.61-.148Q8.651,22.533,14.429,17.9c.1-.08.205-.151.35-.257,0,.155,0,.239,0,.324a1.889,1.889,0,0,0,1.08,1.807,1.762,1.762,0,0,0,2.048-.329c.793-.7,1.578-1.414,2.367-2.12.05-.045.108-.079.2-.149a5.364,5.364,0,0,1-.065,2.069.523.523,0,0,1-.182.224q-.978.845-1.963,1.683L8.632,29.328a1.239,1.239,0,0,0-.295.276.365.365,0,0,0-.012.321v0a.376.376,0,0,0,.32.063.294.294,0,0,0,.116-.065c.05-.04.1-.091.145-.132l6.963-5.9c.335-.284.673-.564,1.026-.86a1.04,1.04,0,0,1,.043.146,1.973,1.973,0,0,0,1.29,1.75,1.931,1.931,0,0,0,2.148-.419c.464-.423.922-.853,1.382-1.281.3-.275.59-.551.906-.848a5.925,5.925,0,0,1,.143.624,3.2,3.2,0,0,1-1.014,2.649c-1.159,1.248-2.344,2.469-3.519,3.7-.077.08-.183.146-.225.241s-.069.281-.019.321l.014.009a.573.573,0,0,0,.338.051.136.136,0,0,0,.081-.051c.028-.029.055-.065.082-.092.952-.984,1.909-1.963,2.854-2.954a13.982,13.982,0,0,0,1.074-1.223,3.411,3.411,0,0,0,.61-3.616.516.516,0,0,1,.074-.386c.065-.112.137-.221.211-.329a4.632,4.632,0,0,0,.587-1,7.547,7.547,0,0,1,1.339-2.4,2.792,2.792,0,0,0,.5-2.469.988.988,0,0,1,0-.489c.506-1.567,1.027-3.129,1.543-4.692q.347-1.05.69-2.094l.213-.647c.454,0,.882-.009,1.308,0,.354.01.462-.156.458-.5C29.985,5.652,29.993,4.273,29.993,2.894ZM12.256,17.2a1.442,1.442,0,0,1-1.684.2,1.393,1.393,0,0,1-.843-1.368,1.624,1.624,0,0,1,.417-.947,35.848,35.848,0,0,1,5.019-3.993.852.852,0,0,1,.326-.14.656.656,0,0,1,.238,0,.763.763,0,0,1,.265.106,1.041,1.041,0,0,1,.488.975,2.422,2.422,0,0,1-.5,1.376A22.671,22.671,0,0,1,12.256,17.2Zm5.2,1.929a1.124,1.124,0,0,1-1.364.192,1.512,1.512,0,0,1-.81-1.224,1.437,1.437,0,0,1,.448-1.2,38.336,38.336,0,0,1,4.87-3.813c.052-.033.1-.066.157-.1a.837.837,0,0,1,1.025.035.861.861,0,0,1,.242.979,4.39,4.39,0,0,1-1.168,1.908C19.753,17.008,18.606,18.069,17.458,19.125Zm5.911,1.241A12.189,12.189,0,0,1,21,23.238q-.532.513-1.105.981a1.484,1.484,0,0,1-2.415-.92,1.1,1.1,0,0,1,.238-.813,22.187,22.187,0,0,1,4.623-3.823.193.193,0,0,1,.065-.013l.1.1c-.28.3-.568.586-.837.893a1.89,1.89,0,0,0-.2.38c.148.044.321.16.441.119.483-.162.958-.35,1.467-.55l.411-.16C23.634,19.772,23.524,20.082,23.369,20.366Zm1.373-2.535a4.363,4.363,0,0,1-1.373,1.152q-.247.138-.507.258c.178-.681.356-1.312.507-1.95l.006-.026a4.468,4.468,0,0,1,.826-1.721c.243-.319.516-.192.795-.123.258.063.323.252.334.5A2.845,2.845,0,0,1,24.742,17.831Zm2.34-8.5c-.578,1.75-1.163,3.5-1.727,5.252-.106.329-.25.389-.561.191l1.483-6.593.228-1.012,1.2.281c-.082.247-.161.49-.241.731Z"></path></g></svg>    </g>
    <g id="react">
        <g clip-path="url(#clip0_2_5687)">
            <path d="M92.9055 32.7027C91.703 32.2887 90.4903 31.9051 89.2686 31.5523C89.4738 30.7106 89.6627 29.8792 89.8304 29.0623C92.5837 15.6483 90.7838 4.84178 84.6359 1.28375C78.7415 -2.12722 69.1015 1.42949 59.3658 9.93342C58.4063 10.773 57.4681 11.6368 56.552 12.524C55.9388 11.934 55.3148 11.3556 54.6802 10.7888C44.4766 1.69616 34.2492 -2.13608 28.108 1.43215C22.2188 4.85374 20.4749 15.0127 22.9537 27.7254C23.2003 28.9844 23.4787 30.237 23.7887 31.4819C22.341 31.8947 20.9441 32.3342 19.6072 32.8019C7.64431 36.9881 0.00463867 43.5483 0.00463867 50.3529C0.00463867 57.3808 8.20617 64.43 20.666 68.7043C21.6762 69.0495 22.6947 69.3692 23.7208 69.6634C23.3875 71.0042 23.0917 72.354 22.8336 73.7114C20.4705 86.2035 22.3159 96.1223 28.1892 99.5222C34.2554 103.033 44.4369 99.4247 54.3505 90.7268C55.1544 90.0196 55.9406 89.2925 56.7083 88.546C57.7003 89.5066 58.7188 90.4393 59.7626 91.343C69.3659 99.6365 78.85 102.985 84.7176 99.5762C90.7781 96.055 92.7479 85.3995 90.1906 72.4356C89.9891 71.42 89.7632 70.4094 89.5131 69.4047C90.2281 69.1921 90.9299 68.9732 91.614 68.7455C104.567 64.4384 112.995 57.4747 112.995 50.3529C112.995 43.5234 105.109 36.919 92.9055 32.7027ZM90.0961 64.1474C89.4782 64.3525 88.8444 64.5505 88.1982 64.7432C86.7682 60.1995 84.8385 55.3684 82.4768 50.3764C84.7304 45.5036 86.5859 40.734 87.9758 36.22C89.1317 36.5558 90.2533 36.9097 91.3346 37.2832C101.791 40.8961 108.168 46.2372 108.168 50.3529C108.168 54.7367 101.28 60.4277 90.0961 64.1474ZM85.4556 73.3765C86.5864 79.1087 86.7475 84.2916 85.9985 88.3435C85.3258 91.9844 83.9726 94.4115 82.2989 95.3839C78.7384 97.4526 71.1234 94.7637 62.9109 87.6706C61.94 86.8305 60.9926 85.9634 60.0698 85.0703C63.2538 81.5756 66.4356 77.5131 69.5411 73.0008C75.0035 72.5144 80.164 71.7188 84.8438 70.6331C85.0693 71.5426 85.2732 72.4573 85.4556 73.3765ZM38.5256 95.0264C35.0467 96.2592 32.2758 96.2946 30.6008 95.3254C27.0368 93.2624 25.5551 85.298 27.5761 74.6151C27.8164 73.3527 28.0914 72.0972 28.401 70.8502C33.0292 71.8779 38.1522 72.6168 43.6274 73.0624C46.7541 77.4776 50.0277 81.5358 53.327 85.0894C52.6258 85.7703 51.9081 86.4338 51.1744 87.0793C46.7903 90.9252 42.3973 93.654 38.5256 95.0264ZM22.2276 64.1204C16.718 62.2302 12.1679 59.7738 9.04919 57.0933C6.24649 54.6848 4.8319 52.2932 4.8319 50.3529C4.8319 46.2234 10.9656 40.9564 21.1961 37.3766C22.4377 36.9425 23.7371 36.5327 25.0855 36.1482C26.4996 40.7641 28.3543 45.5904 30.5924 50.4707C28.3251 55.4233 26.444 60.3267 25.0162 64.997C24.0796 64.7278 23.1498 64.4355 22.2276 64.1204ZM27.6909 26.7947C25.5674 15.9031 26.9776 7.68706 30.5267 5.62497C34.3066 3.42867 42.6652 6.56011 51.4754 14.4115C52.0499 14.9247 52.6151 15.4482 53.1707 15.9819C49.8878 19.52 46.6442 23.548 43.5453 27.9371C38.2312 28.4315 33.1444 29.2253 28.4677 30.2889C28.1795 29.131 27.9205 27.9661 27.6909 26.7951V26.7947ZM76.43 38.8739C75.3254 36.9589 74.1797 35.0679 72.9939 33.2024C76.599 33.66 80.0532 34.2673 83.2968 35.0098C82.3232 38.1425 81.1094 41.4175 79.6807 44.7753C78.6364 42.7867 77.5526 40.8191 76.43 38.8739ZM56.5542 19.4443C58.7805 21.8652 61.0103 24.5678 63.2035 27.5003C58.7545 27.2894 54.298 27.2886 49.849 27.4977C52.0443 24.5922 54.2931 21.8931 56.5542 19.4443ZM36.5509 38.9071C35.4424 40.8367 34.3788 42.792 33.3612 44.7713C31.9558 41.4255 30.7531 38.1355 29.7711 34.9584C32.9948 34.2346 36.4326 33.6427 40.0148 33.1935C38.8158 35.0704 37.6608 36.9754 36.5509 38.9067V38.9071ZM40.1176 67.8569C36.4168 67.4423 32.9273 66.881 29.7044 66.1767C30.7019 62.9429 31.9311 59.5829 33.3669 56.1653C34.3886 58.1461 35.4566 60.1026 36.5699 62.033C37.7148 64.0176 38.9003 65.9614 40.1176 67.8569ZM56.6875 81.6027C54.3995 79.1255 52.1176 76.3848 49.8891 73.4372C52.0527 73.5222 54.2582 73.5656 56.5 73.5656C58.803 73.5656 61.0796 73.5138 63.3204 73.4137C61.1202 76.4145 58.8988 79.1592 56.6875 81.6027ZM79.7262 55.9907C81.2365 59.446 82.5094 62.7883 83.5202 65.9667C80.2443 66.7171 76.7072 67.3214 72.9803 67.7701C74.1745 65.8699 75.331 63.9461 76.449 61.9998C77.5857 60.0214 78.6783 58.0179 79.7262 55.9907ZM72.2679 59.5794C70.5563 62.5634 68.7486 65.4909 66.8474 68.357C63.4037 68.6018 59.9523 68.7234 56.5 68.7216C52.9836 68.7216 49.5634 68.6118 46.2699 68.3974C44.3191 65.5378 42.4769 62.6053 40.747 59.6059H40.7475C39.0258 56.6225 37.4176 53.5745 35.9264 50.4685C37.4138 47.3618 39.0171 44.3124 40.7329 41.3267L40.7325 41.3271C42.4476 38.3407 44.2752 35.4206 46.2112 32.5734C49.5713 32.3182 53.0171 32.1853 56.4995 32.1853H56.5C59.9983 32.1853 63.4484 32.3195 66.8077 32.5765C68.7242 35.4195 70.5401 38.3295 72.252 41.301C73.9735 44.2801 75.598 47.3147 77.123 50.3999C75.6137 53.5166 73.9943 56.5783 72.2679 59.5794ZM82.2252 5.48056C86.0086 7.67067 87.4801 16.5024 85.1029 28.0842C84.9511 28.8231 84.7807 29.5757 84.5953 30.339C79.9071 29.2528 74.8168 28.4452 69.4873 27.9433C66.3827 23.506 63.1655 19.4717 59.936 15.9792C60.7824 15.1604 61.6489 14.3628 62.5348 13.5871C70.8767 6.30141 78.673 3.42468 82.2252 5.48056ZM56.5 40.2263C62.0723 40.2263 66.5897 44.7603 66.5897 50.3529C66.5897 55.9456 62.0723 60.4795 56.5 60.4795C50.9277 60.4795 46.4102 55.9456 46.4102 50.3529C46.4102 44.7603 50.9277 40.2263 56.5 40.2263Z" fill="#00D8FF"/>
        </g>
        <defs>
            <clipPath id="clip0_2_5687">
                <rect width="113" height="101" fill="white"/>
            </clipPath>
        </defs>
    </g>

    <g id="ts">
        <svg width="105px" height="105px" viewBox="0 0 400 400" id="Layer_1" xmlns="http://www.w3.org/2000/svg" fill="#000000"><g id="SVGRepo_bgCarrier" stroke-width="0"></g><g id="SVGRepo_tracerCarrier" stroke-linecap="round" stroke-linejoin="round"></g><g id="SVGRepo_iconCarrier"><style>.st0{fill:#007acc}.st1{fill:#fff}</style><path class="st0" d="M0 200V0h400v400H0"></path><path class="st1" d="M87.7 200.7V217h52v148h36.9V217h52v-16c0-9 0-16.3-.4-16.5 0-.3-31.7-.4-70.2-.4l-70 .3v16.4l-.3-.1zM321.4 184c10.2 2.4 18 7 25 14.3 3.7 4 9.2 11 9.6 12.8 0 .6-17.3 12.3-27.8 18.8-.4.3-2-1.4-3.6-4-5.2-7.4-10.5-10.6-18.8-11.2-12-.8-20 5.5-20 16 0 3.2.6 5 1.8 7.6 2.7 5.5 7.7 8.8 23.2 15.6 28.6 12.3 41 20.4 48.5 32 8.5 13 10.4 33.4 4.7 48.7-6.4 16.7-22 28-44.3 31.7-7 1.2-23 1-30.5-.3-16-3-31.3-11-40.7-21.3-3.7-4-10.8-14.7-10.4-15.4l3.8-2.4 15-8.7 11.3-6.6 2.6 3.5c3.3 5.2 10.7 12.2 15 14.6 13 6.7 30.4 5.8 39-2 3.7-3.4 5.3-7 5.3-12 0-4.6-.7-6.7-3-10.2-3.2-4.4-9.6-8-27.6-16-20.7-8.8-29.5-14.4-37.7-23-4.7-5.2-9-13.3-11-20-1.5-5.8-2-20-.6-25.7 4.3-20 19.4-34 41-38 7-1.4 23.5-.8 30.4 1l-.2.2z"></path></g></svg>
    </g>

    <g id="css">
        <path d="M22.1325 101.154L13.71 7.4375H106.29L97.8562 101.139L59.9437 111.562L22.1325 101.154Z" fill="#1572B6"/>
        <path d="M60 103.597L90.6375 95.174L97.845 15.1019H60V103.597Z" fill="#33A9DC"/>
        <path d="M60 49.054H75.3375L76.395 37.2842H60V25.7896H89.0625L88.785 28.8724L85.9387 60.5487H60V49.054Z" fill="white"/>
        <path d="M60.0711 78.9045L60.0186 78.9193L47.1112 75.4609L46.2862 66.2942H34.6499L36.2737 84.3413L60.0149 90.8788L60.0711 90.864V78.9045Z" fill="#EBEBEB"/>
        <path d="M74.3513 60.0615L72.9563 75.4534L60.03 78.9119V90.8714L83.79 84.3412L83.9663 82.4001L85.98 60.0615H74.3513Z" fill="white"/>
        <path d="M60.0411 25.7896V37.2842H32.0436L31.8111 34.6997L31.2824 28.8724L31.0049 25.7896H60.0411ZM59.9999 49.054V60.5487H47.2536L47.0211 57.9642L46.4961 52.1369L46.2186 49.054H59.9999Z" fill="#EBEBEB"/>
    </g>

    <g id="html">
        <path d="M22.1323 102.004L13.7061 7.5H106.294L97.856 101.989L59.9436 112.5L22.1323 102.004Z" fill="#E44F26"/>
        <path d="M60 104.468L90.6375 95.9738L97.845 15.2288H60V104.468Z" fill="#F1662A"/>
        <path d="M60 50.2762H44.6625L43.605 38.4075H60V26.8162H30.9375L31.215 29.9287L34.0613 61.8675H60V50.2762ZM60 80.3775L59.9475 80.3925L47.04 76.9087L46.215 67.665H34.5787L36.2025 85.86L59.9475 92.4525L60 92.4375V80.3775Z" fill="#EBEBEB"/>
        <path d="M59.959 50.2762V61.8675H74.2315L72.889 76.9012L59.959 80.3887V92.4487L83.7227 85.86L83.8952 83.9025L86.6177 53.3887L86.9027 50.2762H59.959ZM59.959 26.8162V38.4075H87.9565L88.189 35.805L88.7177 29.9287L88.9952 26.8162H59.959Z" fill="white"/>

    </g>

    <g id="js">
        <path d="M7.5 7.5H112.5V112.5H7.5V7.5Z" fill="#F5DE19"/>
        <path d="M78.0338 89.5312C78.9284 91.3485 80.3183 92.8759 82.0434 93.9375C83.7684 94.9991 85.7584 95.5515 87.7838 95.5313C91.8713 95.5313 94.485 93.4875 94.485 90.6562C94.485 87.2812 91.8 86.0738 87.3 84.105L84.8325 83.0475C77.7075 80.0138 72.9825 76.215 72.9825 68.1825C72.9825 60.7838 78.6075 55.1475 87.4313 55.1475C90.2877 54.9412 93.1416 55.5805 95.637 56.9856C98.1324 58.3907 100.159 60.4994 101.464 63.0488L93.75 67.98C93.2476 66.716 92.3728 65.6345 91.2416 64.879C90.1105 64.1236 88.7764 63.7298 87.4163 63.75C86.8229 63.6906 86.2236 63.7555 85.6567 63.9404C85.0897 64.1254 84.5675 64.4265 84.1234 64.8244C83.6792 65.2224 83.3228 65.7085 83.0769 66.2518C82.831 66.7951 82.7009 67.3837 82.695 67.98C82.695 70.9388 84.5288 72.1388 88.7625 73.98L91.23 75.0375C99.615 78.6338 104.355 82.2975 104.355 90.5363C104.355 99.42 97.3763 104.287 88.005 104.287C84.3537 104.52 80.713 103.691 77.5223 101.901C74.3317 100.11 71.7274 97.4342 70.0238 94.1963L78.0338 89.5312ZM43.1775 90.3863C44.7263 93.135 46.1363 95.46 49.5263 95.46C52.7663 95.46 54.8138 94.1925 54.8138 89.2612V55.71H64.68V89.3925C64.68 99.6075 58.68 104.257 49.9463 104.257C46.8591 104.426 43.7931 103.657 41.1513 102.051C38.5096 100.444 36.4157 98.0761 35.145 95.2575L43.1775 90.3863Z" fill="black"/>

    </g>

    <g id="vscode">
        <path d="M101.535 17.605L81.3541 7.88899C80.2144 7.33948 78.932 7.15814 77.6847 7.37011C76.4373 7.58208 75.2868 8.17686 74.3926 9.07199L8.3301 69.3C7.52857 70.0273 7.04878 71.0432 6.99627 72.1243C6.94376 73.2053 7.32283 74.2629 8.0501 75.0645C8.1376 75.159 8.2251 75.25 8.3196 75.334L13.7131 80.234C14.4179 80.8754 15.325 81.2497 16.2771 81.2919C17.2291 81.3341 18.1658 81.0416 18.9246 80.465L98.4971 20.125C99.0981 19.6689 99.8145 19.3897 100.566 19.3186C101.317 19.2476 102.073 19.3877 102.749 19.7231C103.425 20.0585 103.993 20.5758 104.391 21.217C104.789 21.8581 105 22.5975 105 23.352V23.1175C105 21.9656 104.675 20.8372 104.062 19.862C103.449 18.8868 102.573 18.1045 101.535 17.605Z" fill="#0065A9"/>
        <path d="M101.535 94.395L81.3541 104.115C80.2141 104.662 78.9321 104.843 77.6851 104.631C76.4381 104.419 75.2876 103.825 74.3926 102.932L8.3301 42.7C7.52857 41.9727 7.04878 40.9568 6.99627 39.8758C6.94376 38.7947 7.32283 37.7371 8.0501 36.9355C8.1376 36.841 8.2251 36.75 8.3196 36.666L13.7131 31.766C14.4186 31.1219 15.3278 30.7459 16.2822 30.7037C17.2366 30.6615 18.1755 30.9557 18.9351 31.535L98.4971 91.875C99.0981 92.3311 99.8145 92.6104 100.566 92.6814C101.317 92.7524 102.073 92.6123 102.749 92.2769C103.425 91.9415 103.993 91.4242 104.391 90.783C104.789 90.1419 105 89.4025 105 88.648V88.9C104.996 90.0488 104.669 91.1733 104.057 92.1451C103.444 93.1168 102.57 93.8965 101.535 94.395Z" fill="#007ACC"/>
        <path d="M81.3539 104.114C80.2139 104.662 78.9319 104.843 77.6849 104.631C76.4379 104.419 75.2874 103.825 74.3924 102.931C74.895 103.428 75.5329 103.764 76.226 103.899C76.9192 104.034 77.6368 103.962 78.2889 103.691C78.941 103.42 79.4987 102.963 79.892 102.376C80.2853 101.79 80.4968 101.1 80.4999 100.394V11.606C80.5005 10.8965 80.2905 10.2028 79.8965 9.61274C79.5025 9.02271 78.9423 8.56288 78.2867 8.29152C77.6312 8.02016 76.9098 7.94946 76.2141 8.0884C75.5183 8.22734 74.8795 8.56965 74.3784 9.07197C75.2728 8.17717 76.423 7.58235 77.6702 7.3698C78.9173 7.15724 80.1997 7.33744 81.3399 7.88547L101.517 17.5875C102.559 18.0845 103.438 18.8657 104.054 19.8411C104.67 20.8165 104.998 21.9463 105 23.1V88.9C105 90.0528 104.675 91.1822 104.061 92.1581C103.447 93.134 102.571 93.9167 101.531 94.416L81.3539 104.114Z" fill="#1F9CF0"/>

    </g>
    <g id="link">
        <path d="M11.2867 8.71333C10.6041 8.03103 9.67846 7.64774 8.71334 7.64774C7.74821 7.64774 6.82259 8.03103 6.14 8.71333L3.56584 11.2867C2.88324 11.9693 2.49976 12.8951 2.49976 13.8604C2.49976 14.8258 2.88324 15.7516 3.56584 16.4342C4.24844 17.1168 5.17424 17.5002 6.13959 17.5002C7.10493 17.5002 8.03074 17.1168 8.71334 16.4342L10 15.1475" stroke="#FCFCFC" stroke-width="1.66667" stroke-linecap="round" stroke-linejoin="round"/>
        <path d="M8.71338 11.2867C9.39597 11.969 10.3216 12.3523 11.2867 12.3523C12.2518 12.3523 13.1775 11.969 13.86 11.2867L16.4342 8.71334C17.1168 8.03074 17.5003 7.10493 17.5003 6.13959C17.5003 5.17424 17.1168 4.24844 16.4342 3.56584C15.7516 2.88324 14.8258 2.49976 13.8605 2.49976C12.8951 2.49976 11.9693 2.88324 11.2867 3.56584L10 4.8525" stroke="#FCFCFC" stroke-width="1.66667" stroke-linecap="round" stroke-linejoin="round"/>
    </g>
    <g id="time">
        <g clip-path="url(#clip0_55630_362)">
            <path d="M5.33341 6.5C5.1566 6.5 4.98703 6.44732 4.86201 6.35355C4.73699 6.25979 4.66675 6.13261 4.66675 6C4.66675 5.86739 4.73699 5.74021 4.86201 5.64645C4.98703 5.55268 5.1566 5.5 5.33341 5.5C5.51023 5.5 5.67979 5.55268 5.80482 5.64645C5.92984 5.74021 6.00008 5.86739 6.00008 6C6.00008 6.13261 5.92984 6.25979 5.80482 6.35355C5.67979 6.44732 5.51023 6.5 5.33341 6.5ZM5.33341 8.5C5.1566 8.5 4.98703 8.44732 4.86201 8.35355C4.73699 8.25979 4.66675 8.13261 4.66675 8C4.66675 7.86739 4.73699 7.74021 4.86201 7.64645C4.98703 7.55268 5.1566 7.5 5.33341 7.5C5.51023 7.5 5.67979 7.55268 5.80482 7.64645C5.92984 7.74021 6.00008 7.86739 6.00008 8C6.00008 8.13261 5.92984 8.25979 5.80482 8.35355C5.67979 8.44732 5.51023 8.5 5.33341 8.5ZM7.33341 8C7.33341 8.13261 7.40365 8.25979 7.52868 8.35355C7.6537 8.44732 7.82327 8.5 8.00008 8.5C8.17689 8.5 8.34646 8.44732 8.47149 8.35355C8.59651 8.25979 8.66675 8.13261 8.66675 8C8.66675 7.86739 8.59651 7.74021 8.47149 7.64645C8.34646 7.55268 8.17689 7.5 8.00008 7.5C7.82327 7.5 7.6537 7.55268 7.52868 7.64645C7.40365 7.74021 7.33341 7.86739 7.33341 8ZM10.6667 8.5C10.4899 8.5 10.3204 8.44732 10.1953 8.35355C10.0703 8.25979 10.0001 8.13261 10.0001 8C10.0001 7.86739 10.0703 7.74021 10.1953 7.64645C10.3204 7.55268 10.4899 7.5 10.6667 7.5C10.8436 7.5 11.0131 7.55268 11.1382 7.64645C11.2632 7.74021 11.3334 7.86739 11.3334 8C11.3334 8.13261 11.2632 8.25979 11.1382 8.35355C11.0131 8.44732 10.8436 8.5 10.6667 8.5ZM7.33341 6C7.33341 6.13261 7.40365 6.25979 7.52868 6.35355C7.6537 6.44732 7.82327 6.5 8.00008 6.5C8.17689 6.5 8.34646 6.44732 8.47149 6.35355C8.59651 6.25979 8.66675 6.13261 8.66675 6C8.66675 5.86739 8.59651 5.74021 8.47149 5.64645C8.34646 5.55268 8.17689 5.5 8.00008 5.5C7.82327 5.5 7.6537 5.55268 7.52868 5.64645C7.40365 5.74021 7.33341 5.86739 7.33341 6ZM10.6667 6.5C10.4899 6.5 10.3204 6.44732 10.1953 6.35355C10.0703 6.25979 10.0001 6.13261 10.0001 6C10.0001 5.86739 10.0703 5.74021 10.1953 5.64645C10.3204 5.55268 10.4899 5.5 10.6667 5.5C10.8436 5.5 11.0131 5.55268 11.1382 5.64645C11.2632 5.74021 11.3334 5.86739 11.3334 6C11.3334 6.13261 11.2632 6.25979 11.1382 6.35355C11.0131 6.44732 10.8436 6.5 10.6667 6.5ZM5.33341 3.5C5.1566 3.5 4.98703 3.55268 4.86201 3.64645C4.73699 3.74021 4.66675 3.86739 4.66675 4C4.66675 4.13261 4.73699 4.25979 4.86201 4.35355C4.98703 4.44732 5.1566 4.5 5.33341 4.5H10.6667C10.8436 4.5 11.0131 4.44732 11.1382 4.35355C11.2632 4.25979 11.3334 4.13261 11.3334 4C11.3334 3.86739 11.2632 3.74021 11.1382 3.64645C11.0131 3.55268 10.8436 3.5 10.6667 3.5H5.33341Z" fill="#A7A7A7"/>
            <path fill-rule="evenodd" clip-rule="evenodd" d="M4 1.5C3.46957 1.5 2.96086 1.65804 2.58579 1.93934C2.21071 2.22064 2 2.60218 2 3V9C2 9.39782 2.21071 9.77936 2.58579 10.0607C2.96086 10.342 3.46957 10.5 4 10.5H12C12.5304 10.5 13.0391 10.342 13.4142 10.0607C13.7893 9.77936 14 9.39782 14 9V3C14 2.60218 13.7893 2.22064 13.4142 1.93934C13.0391 1.65804 12.5304 1.5 12 1.5H4ZM12 2.5H4C3.82319 2.5 3.65362 2.55268 3.5286 2.64645C3.40357 2.74021 3.33333 2.86739 3.33333 3V9C3.33333 9.13261 3.40357 9.25979 3.5286 9.35355C3.65362 9.44732 3.82319 9.5 4 9.5H12C12.1768 9.5 12.3464 9.44732 12.4714 9.35355C12.5964 9.25979 12.6667 9.13261 12.6667 9V3C12.6667 2.86739 12.5964 2.74021 12.4714 2.64645C12.3464 2.55268 12.1768 2.5 12 2.5Z" fill="#A7A7A7"/>
        </g>
        <defs>
            <clipPath id="clip0_55630_362">
                <rect width="16" height="12" fill="white"/>
            </clipPath>
        </defs>
    </g>
    <g id="location">
        <path d="M6 6.75C5.62916 6.75 5.26665 6.64003 4.95831 6.43401C4.64996 6.22798 4.40964 5.93514 4.26773 5.59253C4.12581 5.24992 4.08868 4.87292 4.16103 4.50921C4.23338 4.14549 4.41195 3.8114 4.67418 3.54918C4.9364 3.28695 5.27049 3.10838 5.63421 3.03603C5.99792 2.96368 6.37492 3.00081 6.71753 3.14273C7.06014 3.28464 7.35298 3.52496 7.55901 3.83331C7.76503 4.14165 7.875 4.50416 7.875 4.875C7.87441 5.3721 7.67667 5.84867 7.32517 6.20017C6.97367 6.55167 6.4971 6.74941 6 6.75ZM6 3.75C5.7775 3.75 5.55999 3.81598 5.37498 3.9396C5.18998 4.06321 5.04579 4.23892 4.96064 4.44448C4.87549 4.65005 4.85321 4.87625 4.89662 5.09448C4.94003 5.31271 5.04717 5.51316 5.20451 5.6705C5.36184 5.82783 5.5623 5.93498 5.78052 5.97838C5.99875 6.02179 6.22495 5.99951 6.43052 5.91437C6.63609 5.82922 6.81179 5.68502 6.9354 5.50002C7.05902 5.31501 7.125 5.09751 7.125 4.875C7.1247 4.57672 7.00608 4.29075 6.79517 4.07983C6.58425 3.86892 6.29828 3.7503 6 3.75Z" fill="#A7A7A7"/>
        <path d="M6 11.25L2.8365 7.51912C2.79255 7.4631 2.74905 7.40673 2.706 7.35C2.16562 6.63817 1.87369 5.76871 1.875 4.875C1.875 3.78098 2.3096 2.73177 3.08319 1.95818C3.85678 1.1846 4.90599 0.75 6 0.75C7.09402 0.75 8.14323 1.1846 8.91682 1.95818C9.69041 2.73177 10.125 3.78098 10.125 4.875C10.1263 5.7683 9.83452 6.63737 9.29438 7.34888L9.294 7.35C9.294 7.35 9.1815 7.49775 9.16463 7.51763L6 11.25ZM3.3045 6.89813C3.30525 6.89813 3.39225 7.01362 3.41213 7.03837L6 10.0905L8.59125 7.03425C8.60775 7.01362 8.6955 6.89738 8.69588 6.897C9.13731 6.31542 9.37587 5.60514 9.375 4.875C9.375 3.97989 9.01942 3.12145 8.38649 2.48851C7.75355 1.85558 6.89511 1.5 6 1.5C5.1049 1.5 4.24645 1.85558 3.61352 2.48851C2.98058 3.12145 2.625 3.97989 2.625 4.875C2.62422 5.60559 2.86305 6.31628 3.30488 6.89813H3.3045Z" fill="#A7A7A7"/>
    </g>
    <g id="office"><path d="M2.5 1.5V10.5H5.5V8.75H6.5V10.5H9.5V1.5H2.5ZM3.5 2.5H4.5V3.5H3.5V2.5ZM5.5 2.5H6.5V3.5H5.5V2.5ZM7.5 2.5H8.5V3.5H7.5V2.5ZM3.5 4.5H4.5V5.5H3.5V4.5ZM5.5 4.5H6.5V5.5H5.5V4.5ZM7.5 4.5H8.5V5.5H7.5V4.5ZM3.5 6.5H4.5V7.5H3.5V6.5ZM5.5 6.5H6.5V7.5H5.5V6.5ZM7.5 6.5H8.5V7.5H7.5V6.5ZM3.5 8.5H4.5V9.5H3.5V8.5ZM7.5 8.5H8.5V9.5H7.5V8.5Z" fill="#A7A7A7"/>
    </g>
    <g id="telegram">
        <g id="SVGRepo_bgCarrier" stroke-width="0"></g><g id="SVGRepo_tracerCarrier" stroke-linecap="round" stroke-linejoin="round"></g><g id="SVGRepo_iconCarrier"> <circle cx="16" cy="16" r="14" fill="#A7A7A7"></circle> <path d="M22.9866 10.2088C23.1112 9.40332 22.3454 8.76755 21.6292 9.082L7.36482 15.3448C6.85123 15.5703 6.8888 16.3483 7.42147 16.5179L10.3631 17.4547C10.9246 17.6335 11.5325 17.541 12.0228 17.2023L18.655 12.6203C18.855 12.4821 19.073 12.7665 18.9021 12.9426L14.1281 17.8646C13.665 18.3421 13.7569 19.1512 14.314 19.5005L19.659 22.8523C20.2585 23.2282 21.0297 22.8506 21.1418 22.1261L22.9866 10.2088Z" fill="#191919"></path> <defs> <linearGradient id="paint0_linear_87_7225" x1="16" y1="2" x2="16" y2="30" gradientUnits="userSpaceOnUse"> <stop stop-color="#37BBFE"></stop> <stop offset="1" stop-color="#007DBB"></stop> </linearGradient> </defs> </g>
    </g>
    <g id="in">
        <rect width="35" height="35" rx="17.5" fill="white" fill-opacity="0.1"/>
        <path d="M12.8064 14.8864H9.53296V25.3626H12.8064V14.8864Z" fill="#7572D5"/>
        <path d="M11.1008 9.94019C9.89376 9.94019 9.10001 10.7208 9.10001 11.7573C9.10001 12.7741 9.86752 13.5744 11.0549 13.5744H11.0811C12.3144 13.5744 13.0819 12.7675 13.0753 11.7573C13.0491 10.7208 12.3078 9.94019 11.1008 9.94019Z" fill="#7572D5"/>
        <path d="M21.7476 14.788C19.8714 14.788 18.6972 15.8113 18.4807 16.5329V14.8864H14.8006C14.8465 15.7588 14.8006 25.3626 14.8006 25.3626H18.4807V19.7014C18.4807 19.3799 18.4676 19.065 18.5594 18.842C18.8087 18.2123 19.3532 17.5563 20.3306 17.5563C21.6098 17.5563 22.1871 18.5271 22.1871 19.9441V25.3626H25.9V19.5374C25.9 16.2968 24.0764 14.788 21.7476 14.788Z" fill="#7572D5"/>
    </g>


    <g id="logo">
        <defs>
            <linearGradient id="gradient" x1="0%" y1="0%" x2="100%" y2="0%">
                <stop offset="2.6%" stop-color="#13b0f5" />
                <stop offset="100%" stop-color="#e70faa" />
            </linearGradient>
        </defs>
        <path d="M5.5 14.8125C4.72917 14.8125 4.08594 14.7812 3.57031 14.7188C3.05469 14.6615 2.64323 14.5391 2.33594 14.3516C2.03385 14.1693 1.81771 13.8932 1.6875 13.5234C1.5625 13.1536 1.5 12.6589 1.5 12.0391V9.05469C1.5 8.80469 1.47135 8.6276 1.41406 8.52344C1.36198 8.41927 1.22917 8.35938 1.01562 8.34375C0.807292 8.32292 0.46875 8.3125 0 8.3125V7.0625C0.46875 7.0625 0.807292 7.05208 1.01562 7.03125C1.22917 7.01042 1.36198 6.95052 1.41406 6.85156C1.47135 6.7474 1.5 6.57031 1.5 6.32031V3.33594C1.5 2.71615 1.5625 2.22135 1.6875 1.85156C1.81771 1.48177 2.03385 1.20573 2.33594 1.02344C2.64323 0.835938 3.05469 0.713542 3.57031 0.65625C4.08594 0.59375 4.72917 0.5625 5.5 0.5625V1.8125C4.90625 1.8125 4.4375 1.82292 4.09375 1.84375C3.75521 1.86458 3.50521 1.92448 3.34375 2.02344C3.1875 2.1224 3.08854 2.28906 3.04688 2.52344C3.00521 2.7526 2.98438 3.07552 2.98438 3.49219V6.34375C2.98438 6.71354 2.92708 7.03125 2.8125 7.29688C2.69792 7.55729 2.42708 7.6875 2 7.6875C2.42708 7.6875 2.69792 7.82031 2.8125 8.08594C2.92708 8.34635 2.98438 8.66146 2.98438 9.03125V11.8828C2.98438 12.2995 3.00521 12.625 3.04688 12.8594C3.08854 13.0885 3.1875 13.2526 3.34375 13.3516C3.50521 13.4505 3.75521 13.5104 4.09375 13.5312C4.4375 13.5521 4.90625 13.5625 5.5 13.5625V14.8125ZM7.75 13V1H9.25V13H7.75ZM16.7578 13.1719C15.7526 13.1719 14.8984 13.1198 14.1953 13.0156C13.4922 12.9167 12.9245 12.7109 12.4922 12.3984C12.0599 12.0807 11.7448 11.6068 11.5469 10.9766C11.349 10.3464 11.25 9.50521 11.25 8.45312C11.25 7.43229 11.349 6.61458 11.5469 6C11.7448 5.38542 12.0599 4.92188 12.4922 4.60938C12.9245 4.29688 13.4922 4.08854 14.1953 3.98438C14.8984 3.88021 15.7526 3.82812 16.7578 3.82812C17.7682 3.82812 18.6224 3.88021 19.3203 3.98438C20.0234 4.08854 20.5911 4.29688 21.0234 4.60938C21.4557 4.92188 21.7708 5.38542 21.9688 6C22.1667 6.61458 22.2656 7.43229 22.2656 8.45312C22.2656 9.50521 22.1667 10.3464 21.9688 10.9766C21.7708 11.6068 21.4557 12.0807 21.0234 12.3984C20.5911 12.7109 20.0234 12.9167 19.3203 13.0156C18.6224 13.1198 17.7682 13.1719 16.7578 13.1719ZM20.7656 8.45312C20.7656 7.70833 20.7266 7.11198 20.6484 6.66406C20.5755 6.21615 20.4115 5.88021 20.1562 5.65625C19.901 5.42708 19.5026 5.27344 18.9609 5.19531C18.4245 5.11719 17.6901 5.07812 16.7578 5.07812C15.8307 5.07812 15.0964 5.11719 14.5547 5.19531C14.013 5.27344 13.6146 5.42708 13.3594 5.65625C13.1042 5.88021 12.9375 6.21615 12.8594 6.66406C12.7865 7.11198 12.75 7.70833 12.75 8.45312C12.75 9.22396 12.7865 9.84115 12.8594 10.3047C12.9375 10.7682 13.1042 11.1172 13.3594 11.3516C13.6146 11.5807 14.013 11.7344 14.5547 11.8125C15.0964 11.8854 15.8307 11.9219 16.7578 11.9219C17.6901 11.9219 18.4245 11.8854 18.9609 11.8125C19.5026 11.7344 19.901 11.5807 20.1562 11.3516C20.4115 11.1172 20.5755 10.7682 20.6484 10.3047C20.7266 9.84115 20.7656 9.22396 20.7656 8.45312ZM33.3125 8.45312C33.3125 7.70833 33.2734 7.11198 33.1953 6.66406C33.1224 6.21615 32.9583 5.88021 32.7031 5.65625C32.4479 5.42708 32.0495 5.27344 31.5078 5.19531C30.9714 5.11719 30.237 5.07812 29.3047 5.07812C28.4557 5.07812 27.7682 5.11719 27.2422 5.19531C26.7161 5.27344 26.3125 5.42708 26.0312 5.65625C25.75 5.88021 25.5573 6.21615 25.4531 6.66406C25.349 7.11198 25.2969 7.70833 25.2969 8.45312C25.2969 9.22396 25.349 9.84115 25.4531 10.3047C25.5573 10.7682 25.75 11.1172 26.0312 11.3516C26.3125 11.5807 26.7161 11.7344 27.2422 11.8125C27.7682 11.8854 28.4557 11.9219 29.3047 11.9219C30.237 11.9219 30.9714 11.8854 31.5078 11.8125C32.0495 11.7344 32.4479 11.5807 32.7031 11.3516C32.9583 11.1172 33.1224 10.7682 33.1953 10.3047C33.2734 9.84115 33.3125 9.22396 33.3125 8.45312ZM23.7969 16V4H25.2969V5.02344C25.6771 4.51823 26.1979 4.19271 26.8594 4.04688C27.526 3.90104 28.3411 3.82812 29.3047 3.82812C30.3151 3.82812 31.1693 3.88021 31.8672 3.98438C32.5703 4.08854 33.138 4.29688 33.5703 4.60938C34.0026 4.92188 34.3177 5.38542 34.5156 6C34.7135 6.61458 34.8125 7.43229 34.8125 8.45312C34.8125 9.50521 34.7135 10.3464 34.5156 10.9766C34.3177 11.6068 34.0026 12.0807 33.5703 12.3984C33.138 12.7109 32.5703 12.9167 31.8672 13.0156C31.1693 13.1198 30.3151 13.1719 29.3047 13.1719C28.3411 13.1719 27.526 13.099 26.8594 12.9531C26.1979 12.8073 25.6771 12.4792 25.2969 11.9688V16H23.7969ZM41.0625 13.1719C39.9844 13.1719 39.0938 13.1146 38.3906 13C37.6927 12.8906 37.1719 12.6458 36.8281 12.2656C36.4896 11.8854 36.3203 11.2943 36.3203 10.4922C36.3203 9.67448 36.4792 9.07552 36.7969 8.69531C37.1198 8.3099 37.6276 8.0599 38.3203 7.94531C39.0182 7.83073 39.9323 7.77344 41.0625 7.77344C41.9792 7.77344 42.7474 7.79427 43.3672 7.83594C43.987 7.8776 44.5417 7.95052 45.0312 8.05469C45.0208 7.36198 44.974 6.81771 44.8906 6.42188C44.8073 6.02083 44.651 5.72396 44.4219 5.53125C44.1927 5.33854 43.8568 5.21615 43.4141 5.16406C42.9766 5.10677 42.3932 5.07812 41.6641 5.07812C40.8307 5.07812 40.1771 5.09635 39.7031 5.13281C39.2344 5.16927 38.8932 5.23438 38.6797 5.32812C38.4661 5.42188 38.3307 5.55729 38.2734 5.73438C38.2214 5.91146 38.1953 6.14062 38.1953 6.42188H36.6953C36.6953 5.85938 36.7708 5.40625 36.9219 5.0625C37.0781 4.71875 37.3411 4.45833 37.7109 4.28125C38.0807 4.10417 38.5859 3.98438 39.2266 3.92188C39.8724 3.85938 40.6849 3.82812 41.6641 3.82812C42.7161 3.82812 43.5625 3.89583 44.2031 4.03125C44.849 4.16667 45.3385 4.41146 45.6719 4.76562C46.0104 5.11458 46.237 5.60417 46.3516 6.23438C46.4714 6.86458 46.5312 7.67708 46.5312 8.67188V13H45.0312V12.3828C44.8542 12.5703 44.6094 12.7214 44.2969 12.8359C43.9844 12.9505 43.5677 13.0339 43.0469 13.0859C42.5312 13.1432 41.8698 13.1719 41.0625 13.1719ZM41.0625 11.9531C41.9531 11.9531 42.6641 11.9427 43.1953 11.9219C43.7266 11.901 44.1224 11.8438 44.3828 11.75C44.6484 11.6562 44.8229 11.5052 44.9062 11.2969C44.9896 11.0885 45.0312 10.7969 45.0312 10.4219V9.03906L41.0625 8.99219C40.3594 8.98177 39.7917 8.99219 39.3594 9.02344C38.9323 9.04948 38.6068 9.11198 38.3828 9.21094C38.1589 9.30469 38.0078 9.45573 37.9297 9.66406C37.8568 9.86719 37.8203 10.1432 37.8203 10.4922C37.8203 10.8307 37.8568 11.099 37.9297 11.2969C38.0078 11.4948 38.1589 11.6406 38.3828 11.7344C38.6068 11.8281 38.9323 11.888 39.3594 11.9141C39.7917 11.9401 40.3594 11.9531 41.0625 11.9531ZM52.4141 13C51.4974 13 50.763 12.9089 50.2109 12.7266C49.6589 12.5391 49.2578 12.2109 49.0078 11.7422C48.763 11.2682 48.6406 10.6042 48.6406 9.75V1.53906H50.1406V4H55.6797V5.23438H50.1406V9.75C50.1406 10.3333 50.1927 10.7682 50.2969 11.0547C50.4062 11.3411 50.6224 11.5286 50.9453 11.6172C51.2734 11.7057 51.763 11.75 52.4141 11.75C52.9922 11.75 53.4453 11.7318 53.7734 11.6953C54.1068 11.6589 54.3516 11.5625 54.5078 11.4062C54.6641 11.2448 54.763 10.9818 54.8047 10.6172C54.8464 10.2526 54.8672 9.73958 54.8672 9.07812H56.1953C56.1953 9.94271 56.1406 10.6354 56.0312 11.1562C55.9271 11.6771 55.737 12.0703 55.4609 12.3359C55.1901 12.6016 54.8073 12.7786 54.3125 12.8672C53.8229 12.9557 53.1901 13 52.4141 13ZM62.8984 13.1719C61.8932 13.1719 61.0391 13.1198 60.3359 13.0156C59.6328 12.9167 59.0651 12.7109 58.6328 12.3984C58.2005 12.0807 57.8854 11.6068 57.6875 10.9766C57.4896 10.3464 57.3906 9.50521 57.3906 8.45312C57.3906 7.43229 57.4896 6.61458 57.6875 6C57.8854 5.38542 58.2005 4.92188 58.6328 4.60938C59.0651 4.29688 59.6328 4.08854 60.3359 3.98438C61.0391 3.88021 61.8932 3.82812 62.8984 3.82812C63.9089 3.82812 64.763 3.88021 65.4609 3.98438C66.1641 4.08854 66.7318 4.29688 67.1641 4.60938C67.5964 4.92188 67.9115 5.38542 68.1094 6C68.3073 6.61458 68.4062 7.43229 68.4062 8.45312C68.4062 9.50521 68.3073 10.3464 68.1094 10.9766C67.9115 11.6068 67.5964 12.0807 67.1641 12.3984C66.7318 12.7109 66.1641 12.9167 65.4609 13.0156C64.763 13.1198 63.9089 13.1719 62.8984 13.1719ZM66.9062 8.45312C66.9062 7.70833 66.8672 7.11198 66.7891 6.66406C66.7161 6.21615 66.5521 5.88021 66.2969 5.65625C66.0417 5.42708 65.6432 5.27344 65.1016 5.19531C64.5651 5.11719 63.8307 5.07812 62.8984 5.07812C61.9714 5.07812 61.237 5.11719 60.6953 5.19531C60.1536 5.27344 59.7552 5.42708 59.5 5.65625C59.2448 5.88021 59.0781 6.21615 59 6.66406C58.9271 7.11198 58.8906 7.70833 58.8906 8.45312C58.8906 9.22396 58.9271 9.84115 59 10.3047C59.0781 10.7682 59.2448 11.1172 59.5 11.3516C59.7552 11.5807 60.1536 11.7344 60.6953 11.8125C61.237 11.8854 61.9714 11.9219 62.8984 11.9219C63.8307 11.9219 64.5651 11.8854 65.1016 11.8125C65.6432 11.7344 66.0417 11.5807 66.2969 11.3516C66.5521 11.1172 66.7161 10.7682 66.7891 10.3047C66.8672 9.84115 66.9062 9.22396 66.9062 8.45312ZM79.4531 8.45312C79.4531 7.70833 79.4141 7.11198 79.3359 6.66406C79.263 6.21615 79.099 5.88021 78.8438 5.65625C78.5885 5.42708 78.1901 5.27344 77.6484 5.19531C77.112 5.11719 76.3776 5.07812 75.4453 5.07812C74.5964 5.07812 73.9089 5.11719 73.3828 5.19531C72.8568 5.27344 72.4531 5.42708 72.1719 5.65625C71.8906 5.88021 71.6979 6.21615 71.5938 6.66406C71.4896 7.11198 71.4375 7.70833 71.4375 8.45312C71.4375 9.22396 71.4896 9.84115 71.5938 10.3047C71.6979 10.7682 71.8906 11.1172 72.1719 11.3516C72.4531 11.5807 72.8568 11.7344 73.3828 11.8125C73.9089 11.8854 74.5964 11.9219 75.4453 11.9219C76.3776 11.9219 77.112 11.8854 77.6484 11.8125C78.1901 11.7344 78.5885 11.5807 78.8438 11.3516C79.099 11.1172 79.263 10.7682 79.3359 10.3047C79.4141 9.84115 79.4531 9.22396 79.4531 8.45312ZM69.9375 16V4H71.4375V5.02344C71.8177 4.51823 72.3385 4.19271 73 4.04688C73.6667 3.90104 74.4818 3.82812 75.4453 3.82812C76.4557 3.82812 77.3099 3.88021 78.0078 3.98438C78.7109 4.08854 79.2786 4.29688 79.7109 4.60938C80.1432 4.92188 80.4583 5.38542 80.6562 6C80.8542 6.61458 80.9531 7.43229 80.9531 8.45312C80.9531 9.50521 80.8542 10.3464 80.6562 10.9766C80.4583 11.6068 80.1432 12.0807 79.7109 12.3984C79.2786 12.7109 78.7109 12.9167 78.0078 13.0156C77.3099 13.1198 76.4557 13.1719 75.4453 13.1719C74.4818 13.1719 73.6667 13.099 73 12.9531C72.3385 12.8073 71.8177 12.4792 71.4375 11.9688V16H69.9375ZM82.4531 14.8125V13.5625C83.0469 13.5625 83.513 13.5521 83.8516 13.5312C84.1953 13.5104 84.4453 13.4505 84.6016 13.3516C84.763 13.2526 84.8646 13.0885 84.9062 12.8594C84.9479 12.625 84.9688 12.2995 84.9688 11.8828V9.03125C84.9688 8.66146 85.026 8.34635 85.1406 8.08594C85.2552 7.82031 85.526 7.6875 85.9531 7.6875C85.526 7.6875 85.2552 7.55729 85.1406 7.29688C85.026 7.03125 84.9688 6.71354 84.9688 6.34375V3.49219C84.9688 3.07552 84.9479 2.7526 84.9062 2.52344C84.8646 2.28906 84.763 2.1224 84.6016 2.02344C84.4453 1.92448 84.1953 1.86458 83.8516 1.84375C83.513 1.82292 83.0469 1.8125 82.4531 1.8125V0.5625C83.2292 0.5625 83.8724 0.59375 84.3828 0.65625C84.8984 0.713542 85.3073 0.835938 85.6094 1.02344C85.9167 1.20573 86.1328 1.48177 86.2578 1.85156C86.388 2.22135 86.4531 2.71615 86.4531 3.33594V6.32031C86.4531 6.57031 86.4792 6.7474 86.5312 6.85156C86.5885 6.95052 86.7214 7.01042 86.9297 7.03125C87.1432 7.05208 87.4844 7.0625 87.9531 7.0625V8.3125C87.4844 8.3125 87.1432 8.32292 86.9297 8.34375C86.7214 8.35938 86.5885 8.41927 86.5312 8.52344C86.4792 8.6276 86.4531 8.80469 86.4531 9.05469V12.0391C86.4531 12.6589 86.388 13.1536 86.2578 13.5234C86.1328 13.8932 85.9167 14.1693 85.6094 14.3516C85.3073 14.5391 84.8984 14.6615 84.3828 14.7188C83.8724 14.7812 83.2292 14.8125 82.4531 14.8125Z" fill="url(#gradient)"/>
    </g>
    <g id="instagram">
        <g id="SVGRepo_tracerCarrier" stroke-linecap="round" stroke-linejoin="round"></g><g id="SVGRepo_iconCarrier"> <circle cx="24" cy="24" r="20" fill="#A7A7A7"></circle> <path d="M24 14.1622C27.2041 14.1622 27.5837 14.1744 28.849 14.2321C30.019 14.2855 30.6544 14.481 31.0773 14.6453C31.6374 14.863 32.0371 15.123 32.457 15.5429C32.877 15.9629 33.137 16.3626 33.3547 16.9227C33.519 17.3456 33.7145 17.981 33.7679 19.1509C33.8256 20.4163 33.8378 20.7958 33.8378 23.9999C33.8378 27.2041 33.8256 27.5836 33.7679 28.849C33.7145 30.019 33.519 30.6543 33.3547 31.0772C33.137 31.6373 32.877 32.0371 32.4571 32.457C32.0371 32.8769 31.6374 33.1369 31.0773 33.3546C30.6544 33.519 30.019 33.7144 28.849 33.7678C27.5839 33.8255 27.2044 33.8378 24 33.8378C20.7956 33.8378 20.4162 33.8255 19.151 33.7678C17.981 33.7144 17.3456 33.519 16.9227 33.3546C16.3626 33.1369 15.9629 32.8769 15.543 32.457C15.1231 32.0371 14.863 31.6373 14.6453 31.0772C14.481 30.6543 14.2855 30.019 14.2321 28.849C14.1744 27.5836 14.1622 27.2041 14.1622 23.9999C14.1622 20.7958 14.1744 20.4163 14.2321 19.1509C14.2855 17.981 14.481 17.3456 14.6453 16.9227C14.863 16.3626 15.123 15.9629 15.543 15.543C15.9629 15.123 16.3626 14.863 16.9227 14.6453C17.3456 14.481 17.981 14.2855 19.151 14.2321C20.4163 14.1744 20.7959 14.1622 24 14.1622ZM24 12C20.741 12 20.3323 12.0138 19.0524 12.0722C17.7752 12.1305 16.9028 12.3333 16.1395 12.63C15.3504 12.9366 14.6812 13.3469 14.0141 14.0141C13.3469 14.6812 12.9366 15.3504 12.63 16.1395C12.3333 16.9028 12.1305 17.7751 12.0722 19.0524C12.0138 20.3323 12 20.741 12 23.9999C12 27.259 12.0138 27.6676 12.0722 28.9475C12.1305 30.2248 12.3333 31.0971 12.63 31.8604C12.9366 32.6495 13.3469 33.3187 14.0141 33.9859C14.6812 34.653 15.3504 35.0633 16.1395 35.3699C16.9028 35.6666 17.7752 35.8694 19.0524 35.9277C20.3323 35.9861 20.741 35.9999 24 35.9999C27.259 35.9999 27.6677 35.9861 28.9476 35.9277C30.2248 35.8694 31.0972 35.6666 31.8605 35.3699C32.6496 35.0633 33.3188 34.653 33.9859 33.9859C34.653 33.3187 35.0634 32.6495 35.37 31.8604C35.6667 31.0971 35.8695 30.2248 35.9278 28.9475C35.9862 27.6676 36 27.259 36 23.9999C36 20.741 35.9862 20.3323 35.9278 19.0524C35.8695 17.7751 35.6667 16.9028 35.37 16.1395C35.0634 15.3504 34.653 14.6812 33.9859 14.0141C33.3188 13.3469 32.6496 12.9366 31.8605 12.63C31.0972 12.3333 30.2248 12.1305 28.9476 12.0722C27.6677 12.0138 27.259 12 24 12Z" fill="#191919"></path> <path d="M24.0059 17.8433C20.6026 17.8433 17.8438 20.6021 17.8438 24.0054C17.8438 27.4087 20.6026 30.1675 24.0059 30.1675C27.4092 30.1675 30.1681 27.4087 30.1681 24.0054C30.1681 20.6021 27.4092 17.8433 24.0059 17.8433ZM24.0059 28.0054C21.7968 28.0054 20.0059 26.2145 20.0059 24.0054C20.0059 21.7963 21.7968 20.0054 24.0059 20.0054C26.2151 20.0054 28.0059 21.7963 28.0059 24.0054C28.0059 26.2145 26.2151 28.0054 24.0059 28.0054Z" fill="#191919"></path> <path d="M31.8507 17.5963C31.8507 18.3915 31.206 19.0363 30.4107 19.0363C29.6154 19.0363 28.9707 18.3915 28.9707 17.5963C28.9707 16.801 29.6154 16.1562 30.4107 16.1562C31.206 16.1562 31.8507 16.801 31.8507 17.5963Z" fill="#191919"></path> </g>

    </g>

    <g id="webstorm">
       <g id="SVGRepo_bgCarrier" stroke-width="0"></g><g id="SVGRepo_tracerCarrier" stroke-linecap="round" stroke-linejoin="round" stroke="#CCCCCC" stroke-width="1.536"></g><g id="SVGRepo_iconCarrier"> <defs> <linearGradient x1="41.7030965%" y1="1.92488263%" x2="71.8761384%" y2="95.2347418%" id="linearGradient-1"> <stop stop-color="#00CDD7" offset="28%"> </stop> <stop stop-color="#2086D7" offset="94%"> </stop> </linearGradient> <linearGradient x1="22.4892241%" y1="15.1271186%" x2="82.8771552%" y2="84.7627119%" id="linearGradient-2"> <stop stop-color="#FFF045" offset="14%"> </stop> <stop stop-color="#00CDD7" offset="37%"> </stop> </linearGradient> <linearGradient x1="11171%" y1="-27691.7984%" x2="11907%" y2="-28759.6256%" id="linearGradient-3"> <stop stop-color="#00CDD7" offset="28%"> </stop> <stop stop-color="#2086D7" offset="94%"> </stop> </linearGradient> </defs> <g> <polygon fill="url(#linearGradient-1)" points="34.4 231.2 0 26.8 64 0.4 104.4 24.4 142 4.4 219.6 34.4 176 256"> </polygon> <polygon fill="url(#linearGradient-2)" points="256 86.8 222.8 5.2 163.2 0 70.4 88.8 95.2 203.6 142 236 256 168.4 228 116"> </polygon> <polygon fill="url(#linearGradient-3)" points="204.8 74.4 228 116 256 86.8 235.6 36"> </polygon> <rect fill="#000000" x="48" y="48" width="160" height="160"> </rect> <path d="M63.2,178 L123.2,178 L123.2,188 L63.2,188 L63.2,178 Z M141.6,125.6 L150,115.2 C156,120 162,123.2 169.6,123.2 C175.6,123.2 179.2,120.8 179.2,116.8 C179.2,113.2 176.8,111.2 166,108.4 C152.8,104.8 144.4,101.2 144.4,88 L144.4,87.6 C144.4,75.6 154,67.6 167.2,67.6 C176.04879,67.5627811 184.649333,70.5236236 191.6,76 L184,87.2 C179.170815,83.4261245 173.316089,81.1957528 167.2,80.8 C162,80.8 158.8,83.2 158.8,86.8 C158.8,91.2 161.6,92.8 172.8,95.6 C186,99.2 193.6,104 193.6,115.6 C193.6,128.8 183.6,136.4 169.6,136.4 C159.323641,136.02223 149.468301,132.220884 141.6,125.6 Z M128.8,68.8 L118.8,107.2 L107.6,68.8 L96.4,68.8 L85.2,107.2 L75.2,68.8 L59.6,68.8 L78.8,135.2 L91.2,135.2 L102,96.8 L112.8,135.2 L125.2,135.2 L144.4,68.8 L128.8,68.8 Z" fill="#FFFFFF"> </path> </g> </g>
    </g>
</svg>