<svg  fill="none" xmlns="http://www.w3.org/2000/svg" width="150px" height="60px" viewBox="35 -17 50 50">
<g id="logo">
        <defs>
            <linearGradient id="gradient" x1="0%" y1="0%" x2="100%" y2="0%">
                <stop offset="2.6%" stop-color="#13b0f5" />
                <stop offset="100%" stop-color="#e70faa" />
            </linearGradient>
        </defs>
        <path d="M5.5 14.8125C4.72917 14.8125 4.08594 14.7812 3.57031 14.7188C3.05469 14.6615 2.64323 14.5391 2.33594 14.3516C2.03385 14.1693 1.81771 13.8932 1.6875 13.5234C1.5625 13.1536 1.5 12.6589 1.5 12.0391V9.05469C1.5 8.80469 1.47135 8.6276 1.41406 8.52344C1.36198 8.41927 1.22917 8.35938 1.01562 8.34375C0.807292 8.32292 0.46875 8.3125 0 8.3125V7.0625C0.46875 7.0625 0.807292 7.05208 1.01562 7.03125C1.22917 7.01042 1.36198 6.95052 1.41406 6.85156C1.47135 6.7474 1.5 6.57031 1.5 6.32031V3.33594C1.5 2.71615 1.5625 2.22135 1.6875 1.85156C1.81771 1.48177 2.03385 1.20573 2.33594 1.02344C2.64323 0.835938 3.05469 0.713542 3.57031 0.65625C4.08594 0.59375 4.72917 0.5625 5.5 0.5625V1.8125C4.90625 1.8125 4.4375 1.82292 4.09375 1.84375C3.75521 1.86458 3.50521 1.92448 3.34375 2.02344C3.1875 2.1224 3.08854 2.28906 3.04688 2.52344C3.00521 2.7526 2.98438 3.07552 2.98438 3.49219V6.34375C2.98438 6.71354 2.92708 7.03125 2.8125 7.29688C2.69792 7.55729 2.42708 7.6875 2 7.6875C2.42708 7.6875 2.69792 7.82031 2.8125 8.08594C2.92708 8.34635 2.98438 8.66146 2.98438 9.03125V11.8828C2.98438 12.2995 3.00521 12.625 3.04688 12.8594C3.08854 13.0885 3.1875 13.2526 3.34375 13.3516C3.50521 13.4505 3.75521 13.5104 4.09375 13.5312C4.4375 13.5521 4.90625 13.5625 5.5 13.5625V14.8125ZM7.75 13V1H9.25V13H7.75ZM16.7578 13.1719C15.7526 13.1719 14.8984 13.1198 14.1953 13.0156C13.4922 12.9167 12.9245 12.7109 12.4922 12.3984C12.0599 12.0807 11.7448 11.6068 11.5469 10.9766C11.349 10.3464 11.25 9.50521 11.25 8.45312C11.25 7.43229 11.349 6.61458 11.5469 6C11.7448 5.38542 12.0599 4.92188 12.4922 4.60938C12.9245 4.29688 13.4922 4.08854 14.1953 3.98438C14.8984 3.88021 15.7526 3.82812 16.7578 3.82812C17.7682 3.82812 18.6224 3.88021 19.3203 3.98438C20.0234 4.08854 20.5911 4.29688 21.0234 4.60938C21.4557 4.92188 21.7708 5.38542 21.9688 6C22.1667 6.61458 22.2656 7.43229 22.2656 8.45312C22.2656 9.50521 22.1667 10.3464 21.9688 10.9766C21.7708 11.6068 21.4557 12.0807 21.0234 12.3984C20.5911 12.7109 20.0234 12.9167 19.3203 13.0156C18.6224 13.1198 17.7682 13.1719 16.7578 13.1719ZM20.7656 8.45312C20.7656 7.70833 20.7266 7.11198 20.6484 6.66406C20.5755 6.21615 20.4115 5.88021 20.1562 5.65625C19.901 5.42708 19.5026 5.27344 18.9609 5.19531C18.4245 5.11719 17.6901 5.07812 16.7578 5.07812C15.8307 5.07812 15.0964 5.11719 14.5547 5.19531C14.013 5.27344 13.6146 5.42708 13.3594 5.65625C13.1042 5.88021 12.9375 6.21615 12.8594 6.66406C12.7865 7.11198 12.75 7.70833 12.75 8.45312C12.75 9.22396 12.7865 9.84115 12.8594 10.3047C12.9375 10.7682 13.1042 11.1172 13.3594 11.3516C13.6146 11.5807 14.013 11.7344 14.5547 11.8125C15.0964 11.8854 15.8307 11.9219 16.7578 11.9219C17.6901 11.9219 18.4245 11.8854 18.9609 11.8125C19.5026 11.7344 19.901 11.5807 20.1562 11.3516C20.4115 11.1172 20.5755 10.7682 20.6484 10.3047C20.7266 9.84115 20.7656 9.22396 20.7656 8.45312ZM33.3125 8.45312C33.3125 7.70833 33.2734 7.11198 33.1953 6.66406C33.1224 6.21615 32.9583 5.88021 32.7031 5.65625C32.4479 5.42708 32.0495 5.27344 31.5078 5.19531C30.9714 5.11719 30.237 5.07812 29.3047 5.07812C28.4557 5.07812 27.7682 5.11719 27.2422 5.19531C26.7161 5.27344 26.3125 5.42708 26.0312 5.65625C25.75 5.88021 25.5573 6.21615 25.4531 6.66406C25.349 7.11198 25.2969 7.70833 25.2969 8.45312C25.2969 9.22396 25.349 9.84115 25.4531 10.3047C25.5573 10.7682 25.75 11.1172 26.0312 11.3516C26.3125 11.5807 26.7161 11.7344 27.2422 11.8125C27.7682 11.8854 28.4557 11.9219 29.3047 11.9219C30.237 11.9219 30.9714 11.8854 31.5078 11.8125C32.0495 11.7344 32.4479 11.5807 32.7031 11.3516C32.9583 11.1172 33.1224 10.7682 33.1953 10.3047C33.2734 9.84115 33.3125 9.22396 33.3125 8.45312ZM23.7969 16V4H25.2969V5.02344C25.6771 4.51823 26.1979 4.19271 26.8594 4.04688C27.526 3.90104 28.3411 3.82812 29.3047 3.82812C30.3151 3.82812 31.1693 3.88021 31.8672 3.98438C32.5703 4.08854 33.138 4.29688 33.5703 4.60938C34.0026 4.92188 34.3177 5.38542 34.5156 6C34.7135 6.61458 34.8125 7.43229 34.8125 8.45312C34.8125 9.50521 34.7135 10.3464 34.5156 10.9766C34.3177 11.6068 34.0026 12.0807 33.5703 12.3984C33.138 12.7109 32.5703 12.9167 31.8672 13.0156C31.1693 13.1198 30.3151 13.1719 29.3047 13.1719C28.3411 13.1719 27.526 13.099 26.8594 12.9531C26.1979 12.8073 25.6771 12.4792 25.2969 11.9688V16H23.7969ZM41.0625 13.1719C39.9844 13.1719 39.0938 13.1146 38.3906 13C37.6927 12.8906 37.1719 12.6458 36.8281 12.2656C36.4896 11.8854 36.3203 11.2943 36.3203 10.4922C36.3203 9.67448 36.4792 9.07552 36.7969 8.69531C37.1198 8.3099 37.6276 8.0599 38.3203 7.94531C39.0182 7.83073 39.9323 7.77344 41.0625 7.77344C41.9792 7.77344 42.7474 7.79427 43.3672 7.83594C43.987 7.8776 44.5417 7.95052 45.0312 8.05469C45.0208 7.36198 44.974 6.81771 44.8906 6.42188C44.8073 6.02083 44.651 5.72396 44.4219 5.53125C44.1927 5.33854 43.8568 5.21615 43.4141 5.16406C42.9766 5.10677 42.3932 5.07812 41.6641 5.07812C40.8307 5.07812 40.1771 5.09635 39.7031 5.13281C39.2344 5.16927 38.8932 5.23438 38.6797 5.32812C38.4661 5.42188 38.3307 5.55729 38.2734 5.73438C38.2214 5.91146 38.1953 6.14062 38.1953 6.42188H36.6953C36.6953 5.85938 36.7708 5.40625 36.9219 5.0625C37.0781 4.71875 37.3411 4.45833 37.7109 4.28125C38.0807 4.10417 38.5859 3.98438 39.2266 3.92188C39.8724 3.85938 40.6849 3.82812 41.6641 3.82812C42.7161 3.82812 43.5625 3.89583 44.2031 4.03125C44.849 4.16667 45.3385 4.41146 45.6719 4.76562C46.0104 5.11458 46.237 5.60417 46.3516 6.23438C46.4714 6.86458 46.5312 7.67708 46.5312 8.67188V13H45.0312V12.3828C44.8542 12.5703 44.6094 12.7214 44.2969 12.8359C43.9844 12.9505 43.5677 13.0339 43.0469 13.0859C42.5312 13.1432 41.8698 13.1719 41.0625 13.1719ZM41.0625 11.9531C41.9531 11.9531 42.6641 11.9427 43.1953 11.9219C43.7266 11.901 44.1224 11.8438 44.3828 11.75C44.6484 11.6562 44.8229 11.5052 44.9062 11.2969C44.9896 11.0885 45.0312 10.7969 45.0312 10.4219V9.03906L41.0625 8.99219C40.3594 8.98177 39.7917 8.99219 39.3594 9.02344C38.9323 9.04948 38.6068 9.11198 38.3828 9.21094C38.1589 9.30469 38.0078 9.45573 37.9297 9.66406C37.8568 9.86719 37.8203 10.1432 37.8203 10.4922C37.8203 10.8307 37.8568 11.099 37.9297 11.2969C38.0078 11.4948 38.1589 11.6406 38.3828 11.7344C38.6068 11.8281 38.9323 11.888 39.3594 11.9141C39.7917 11.9401 40.3594 11.9531 41.0625 11.9531ZM52.4141 13C51.4974 13 50.763 12.9089 50.2109 12.7266C49.6589 12.5391 49.2578 12.2109 49.0078 11.7422C48.763 11.2682 48.6406 10.6042 48.6406 9.75V1.53906H50.1406V4H55.6797V5.23438H50.1406V9.75C50.1406 10.3333 50.1927 10.7682 50.2969 11.0547C50.4062 11.3411 50.6224 11.5286 50.9453 11.6172C51.2734 11.7057 51.763 11.75 52.4141 11.75C52.9922 11.75 53.4453 11.7318 53.7734 11.6953C54.1068 11.6589 54.3516 11.5625 54.5078 11.4062C54.6641 11.2448 54.763 10.9818 54.8047 10.6172C54.8464 10.2526 54.8672 9.73958 54.8672 9.07812H56.1953C56.1953 9.94271 56.1406 10.6354 56.0312 11.1562C55.9271 11.6771 55.737 12.0703 55.4609 12.3359C55.1901 12.6016 54.8073 12.7786 54.3125 12.8672C53.8229 12.9557 53.1901 13 52.4141 13ZM62.8984 13.1719C61.8932 13.1719 61.0391 13.1198 60.3359 13.0156C59.6328 12.9167 59.0651 12.7109 58.6328 12.3984C58.2005 12.0807 57.8854 11.6068 57.6875 10.9766C57.4896 10.3464 57.3906 9.50521 57.3906 8.45312C57.3906 7.43229 57.4896 6.61458 57.6875 6C57.8854 5.38542 58.2005 4.92188 58.6328 4.60938C59.0651 4.29688 59.6328 4.08854 60.3359 3.98438C61.0391 3.88021 61.8932 3.82812 62.8984 3.82812C63.9089 3.82812 64.763 3.88021 65.4609 3.98438C66.1641 4.08854 66.7318 4.29688 67.1641 4.60938C67.5964 4.92188 67.9115 5.38542 68.1094 6C68.3073 6.61458 68.4062 7.43229 68.4062 8.45312C68.4062 9.50521 68.3073 10.3464 68.1094 10.9766C67.9115 11.6068 67.5964 12.0807 67.1641 12.3984C66.7318 12.7109 66.1641 12.9167 65.4609 13.0156C64.763 13.1198 63.9089 13.1719 62.8984 13.1719ZM66.9062 8.45312C66.9062 7.70833 66.8672 7.11198 66.7891 6.66406C66.7161 6.21615 66.5521 5.88021 66.2969 5.65625C66.0417 5.42708 65.6432 5.27344 65.1016 5.19531C64.5651 5.11719 63.8307 5.07812 62.8984 5.07812C61.9714 5.07812 61.237 5.11719 60.6953 5.19531C60.1536 5.27344 59.7552 5.42708 59.5 5.65625C59.2448 5.88021 59.0781 6.21615 59 6.66406C58.9271 7.11198 58.8906 7.70833 58.8906 8.45312C58.8906 9.22396 58.9271 9.84115 59 10.3047C59.0781 10.7682 59.2448 11.1172 59.5 11.3516C59.7552 11.5807 60.1536 11.7344 60.6953 11.8125C61.237 11.8854 61.9714 11.9219 62.8984 11.9219C63.8307 11.9219 64.5651 11.8854 65.1016 11.8125C65.6432 11.7344 66.0417 11.5807 66.2969 11.3516C66.5521 11.1172 66.7161 10.7682 66.7891 10.3047C66.8672 9.84115 66.9062 9.22396 66.9062 8.45312ZM79.4531 8.45312C79.4531 7.70833 79.4141 7.11198 79.3359 6.66406C79.263 6.21615 79.099 5.88021 78.8438 5.65625C78.5885 5.42708 78.1901 5.27344 77.6484 5.19531C77.112 5.11719 76.3776 5.07812 75.4453 5.07812C74.5964 5.07812 73.9089 5.11719 73.3828 5.19531C72.8568 5.27344 72.4531 5.42708 72.1719 5.65625C71.8906 5.88021 71.6979 6.21615 71.5938 6.66406C71.4896 7.11198 71.4375 7.70833 71.4375 8.45312C71.4375 9.22396 71.4896 9.84115 71.5938 10.3047C71.6979 10.7682 71.8906 11.1172 72.1719 11.3516C72.4531 11.5807 72.8568 11.7344 73.3828 11.8125C73.9089 11.8854 74.5964 11.9219 75.4453 11.9219C76.3776 11.9219 77.112 11.8854 77.6484 11.8125C78.1901 11.7344 78.5885 11.5807 78.8438 11.3516C79.099 11.1172 79.263 10.7682 79.3359 10.3047C79.4141 9.84115 79.4531 9.22396 79.4531 8.45312ZM69.9375 16V4H71.4375V5.02344C71.8177 4.51823 72.3385 4.19271 73 4.04688C73.6667 3.90104 74.4818 3.82812 75.4453 3.82812C76.4557 3.82812 77.3099 3.88021 78.0078 3.98438C78.7109 4.08854 79.2786 4.29688 79.7109 4.60938C80.1432 4.92188 80.4583 5.38542 80.6562 6C80.8542 6.61458 80.9531 7.43229 80.9531 8.45312C80.9531 9.50521 80.8542 10.3464 80.6562 10.9766C80.4583 11.6068 80.1432 12.0807 79.7109 12.3984C79.2786 12.7109 78.7109 12.9167 78.0078 13.0156C77.3099 13.1198 76.4557 13.1719 75.4453 13.1719C74.4818 13.1719 73.6667 13.099 73 12.9531C72.3385 12.8073 71.8177 12.4792 71.4375 11.9688V16H69.9375ZM82.4531 14.8125V13.5625C83.0469 13.5625 83.513 13.5521 83.8516 13.5312C84.1953 13.5104 84.4453 13.4505 84.6016 13.3516C84.763 13.2526 84.8646 13.0885 84.9062 12.8594C84.9479 12.625 84.9688 12.2995 84.9688 11.8828V9.03125C84.9688 8.66146 85.026 8.34635 85.1406 8.08594C85.2552 7.82031 85.526 7.6875 85.9531 7.6875C85.526 7.6875 85.2552 7.55729 85.1406 7.29688C85.026 7.03125 84.9688 6.71354 84.9688 6.34375V3.49219C84.9688 3.07552 84.9479 2.7526 84.9062 2.52344C84.8646 2.28906 84.763 2.1224 84.6016 2.02344C84.4453 1.92448 84.1953 1.86458 83.8516 1.84375C83.513 1.82292 83.0469 1.8125 82.4531 1.8125V0.5625C83.2292 0.5625 83.8724 0.59375 84.3828 0.65625C84.8984 0.713542 85.3073 0.835938 85.6094 1.02344C85.9167 1.20573 86.1328 1.48177 86.2578 1.85156C86.388 2.22135 86.4531 2.71615 86.4531 3.33594V6.32031C86.4531 6.57031 86.4792 6.7474 86.5312 6.85156C86.5885 6.95052 86.7214 7.01042 86.9297 7.03125C87.1432 7.05208 87.4844 7.0625 87.9531 7.0625V8.3125C87.4844 8.3125 87.1432 8.32292 86.9297 8.34375C86.7214 8.35938 86.5885 8.41927 86.5312 8.52344C86.4792 8.6276 86.4531 8.80469 86.4531 9.05469V12.0391C86.4531 12.6589 86.388 13.1536 86.2578 13.5234C86.1328 13.8932 85.9167 14.1693 85.6094 14.3516C85.3073 14.5391 84.8984 14.6615 84.3828 14.7188C83.8724 14.7812 83.2292 14.8125 82.4531 14.8125Z" fill="url(#gradient)"/>
    </g>
</svg>